<svg xmlns="http://www.w3.org/2000/svg" viewBox="0 0 466.18 156.03"><defs><style>.cls-1{fill:#33b9cb;}.cls-2{fill:#163666;stroke:#fefefe;stroke-miterlimit:10;}</style></defs><g id="Layer_2" data-name="Layer 2"><g id="Layer_1-2" data-name="Layer 1"><path class="cls-1" d="M181,50.05H168.73V45.62H198.6v4.43H186.27V86H181Z"/><path class="cls-1" d="M202.49,43.47h5.27V61.54h.12a9.75,9.75,0,0,1,3.77-3.71A10.78,10.78,0,0,1,217,56.34c3.89,0,10.12,2.39,10.12,12.38V86h-5.27V69.32c0-4.67-1.74-8.61-6.7-8.61A7.56,7.56,0,0,0,208.12,66a6.37,6.37,0,0,0-.36,2.51V86h-5.27Z"/><path class="cls-1" d="M238.64,72.43c.12,7.13,4.67,10.06,9.93,10.06a19,19,0,0,0,8-1.5l.9,3.77a23.45,23.45,0,0,1-9.64,1.8c-8.91,0-14.24-5.87-14.24-14.6s5.15-15.62,13.59-15.62c9.45,0,12,8.31,12,13.64a19.55,19.55,0,0,1-.18,2.45Zm15.44-3.77c.06-3.35-1.38-8.55-7.3-8.55-5.33,0-7.66,4.9-8.08,8.55Z"/><path class="cls-1" d="M278.56,86V45.62h5.68L297.17,66a113.89,113.89,0,0,1,7.24,13.11l.12-.06c-.48-5.39-.6-10.3-.6-16.58V45.62h4.91V86h-5.27l-12.8-20.47A125.87,125.87,0,0,1,283.23,52l-.18.06c.3,5.08.41,9.93.41,16.63V86Z"/><path class="cls-1" d="M342,78.06c0,3,.06,5.63.24,7.9h-4.67l-.3-4.73h-.12a10.9,10.9,0,0,1-9.58,5.39c-4.55,0-10-2.52-10-12.69V57h5.26V73c0,5.51,1.68,9.22,6.47,9.22a7.42,7.42,0,0,0,7.42-7.48V57H342Z"/><path class="cls-1" d="M350.74,66c0-3.41-.07-6.34-.24-9h4.6l.18,5.69h.24c1.32-3.89,4.49-6.34,8-6.34a5.71,5.71,0,0,1,1.5.18v5a7.93,7.93,0,0,0-1.8-.18c-3.71,0-6.34,2.82-7.06,6.77a14.63,14.63,0,0,0-.24,2.45V86h-5.2Z"/><path class="cls-1" d="M369.59,80.57a13.76,13.76,0,0,0,6.94,2.1c3.83,0,5.63-1.92,5.63-4.31s-1.5-3.89-5.39-5.33c-5.21-1.85-7.66-4.73-7.66-8.2,0-4.66,3.77-8.49,10-8.49a14.39,14.39,0,0,1,7.12,1.79L384.91,62A11.27,11.27,0,0,0,379,60.29c-3.11,0-4.84,1.79-4.84,3.95,0,2.39,1.73,3.47,5.5,4.9,5,1.92,7.6,4.43,7.6,8.74,0,5.09-3.95,8.68-10.83,8.68a16.51,16.51,0,0,1-8.14-2Z"/><path class="cls-1" d="M399.87,48.86a3.26,3.26,0,0,1-6.52,0,3.21,3.21,0,0,1,3.29-3.3A3.13,3.13,0,0,1,399.87,48.86ZM394,86V57h5.26V86Z"/><path class="cls-1" d="M408,64.83c0-3-.06-5.44-.24-7.84h4.67l.3,4.79h.12a10.65,10.65,0,0,1,9.57-5.44c4,0,10.24,2.39,10.24,12.32V86H427.4V69.26c0-4.67-1.74-8.55-6.7-8.55a7.47,7.47,0,0,0-7.06,5.38,7.57,7.57,0,0,0-.36,2.45V86H408Z"/><path class="cls-1" d="M466.18,57c-.12,2.1-.24,4.43-.24,8V81.77c0,6.64-1.31,10.71-4.13,13.23s-6.88,3.47-10.53,3.47c-3.47,0-7.3-.84-9.64-2.4l1.32-4a16.33,16.33,0,0,0,8.5,2.28c5.39,0,9.33-2.81,9.33-10.12V81h-.11a10.34,10.34,0,0,1-9.22,4.85c-7.18,0-12.33-6.1-12.33-14.12,0-9.82,6.41-15.38,13.05-15.38,5,0,7.78,2.63,9,5h.12l.24-4.37Zm-5.44,11.43a7.49,7.49,0,0,0-.3-2.39,7.59,7.59,0,0,0-7.36-5.57c-5,0-8.62,4.25-8.62,11,0,5.68,2.87,10.41,8.56,10.41a7.71,7.71,0,0,0,7.3-5.39,9.08,9.08,0,0,0,.42-2.81Z"/><path class="cls-2" d="M178,129.05l-4.52,13.7h-5.82l14.8-43.54h6.78l14.85,43.54h-6l-4.65-13.7Zm14.27-4.39L188,112.13c-1-2.84-1.61-5.43-2.26-7.95h-.13c-.65,2.59-1.36,5.24-2.2,7.88l-4.26,12.6Z"/><path class="cls-2" d="M239.92,141.33c-2.06,1-6.2,2.06-11.49,2.06-12.28,0-21.51-7.75-21.51-22,0-13.63,9.23-22.87,22.73-22.87,5.43,0,8.85,1.16,10.34,1.94L238.63,105a20.53,20.53,0,0,0-8.78-1.8c-10.21,0-17,6.52-17,18,0,10.66,6.14,17.51,16.73,17.51a22.46,22.46,0,0,0,9.17-1.81Z"/><path class="cls-2" d="M269.51,122.34H252.58V138h18.86v4.72H247V99.21h23.52v4.72h-17.9v13.75h16.93Z"/><path class="cls-1" d="M104,.5s27,100-104,107v-53L53.5,54V0"/><path class="cls-2" d="M163,48.5s27,100-104,107v-53l53.5-.5V48"/></g></g></svg>